<?xml version="1.0" encoding="UTF-8" standalone="no"?>
<!-- Created with Inkscape (http://www.inkscape.org/) -->

<svg
   xmlns:dc="http://purl.org/dc/elements/1.1/"
   xmlns:cc="http://creativecommons.org/ns#"
   xmlns:rdf="http://www.w3.org/1999/02/22-rdf-syntax-ns#"
   xmlns:svg="http://www.w3.org/2000/svg"
   xmlns="http://www.w3.org/2000/svg"
   xmlns:sodipodi="http://sodipodi.sourceforge.net/DTD/sodipodi-0.dtd"
   xmlns:inkscape="http://www.inkscape.org/namespaces/inkscape"
   version="1.1"
   id="svg1382"
   width="1192"
   height="1192"
   viewBox="0 0 1192 1192"
   sodipodi:docname="araña.svg"
   inkscape:version="0.92.4 (5da689c313, 2019-01-14)">
  <metadata
     id="metadata1388">
    <rdf:RDF>
      <cc:Work
         rdf:about="">
        <dc:format>image/svg+xml</dc:format>
        <dc:type
           rdf:resource="http://purl.org/dc/dcmitype/StillImage" />
        <dc:title></dc:title>
      </cc:Work>
    </rdf:RDF>
  </metadata>
  <defs
     id="defs1386" />
  <sodipodi:namedview
     pagecolor="#ffffff"
     bordercolor="#666666"
     borderopacity="1"
     objecttolerance="10"
     gridtolerance="10"
     guidetolerance="10"
     inkscape:pageopacity="0"
     inkscape:pageshadow="2"
     inkscape:window-width="1920"
     inkscape:window-height="1057"
     id="namedview1384"
     showgrid="false"
     inkscape:zoom="0.5599906"
     inkscape:cx="478.77278"
     inkscape:cy="834.08706"
     inkscape:window-x="-8"
     inkscape:window-y="-8"
     inkscape:window-maximized="1"
     inkscape:current-layer="svg1382" />
  <path
     style="fill:#000000;stroke-width:4.033;stroke:#000000;stroke-opacity:1;stroke-miterlimit:4;stroke-dasharray:none;stroke-linejoin:bevel"
     d="m 492.55065,1162.7857 c -15.4293,-19.3481 -36.3036,-55.518 -48.3435,-83.7671 -24.9914,-58.637 -40.4296,-117.40582 -58.817,-223.89953 -12.5268,-72.55141 -14.5951,-103.90842 -14.5547,-220.66666 0.016,-47.66667 0.5174,-93.82903 1.1131,-102.58303 1.0124,-14.87471 1.3223,-16.15539 4.7355,-19.56861 2.1067,-2.10672 5.853,-4.02926 8.8529,-4.54315 16.8171,-2.88087 26.4616,-8.97544 52.9735,-33.4752 19.3351,-17.86768 24.0982,-23.86235 20.1605,-25.37339 -6.2029,-2.38029 -36.2993,2.81226 -52.7825,9.10659 -9.2837,3.54509 -12.3805,5.6478 -22.9759,15.60041 -14.9329,14.0271 -42.6907,36.42991 -110.84169,89.45838 -73.24563,56.99265 -74.81936,58.30177 -80.75789,67.17898 -9.59552,14.34387 -11.71764,27.69902 -9.35368,58.86568 4.05541,53.46708 14.6448,137.87119 21.57922,172 5.22628,25.72195 15.20032,64.73958 23.68828,92.66667 6.81644,22.42745 26.27244,79.92406 32.65367,96.49856 4.59137,11.9256 2.23557,9.8828 -9.68381,-8.397 -21.30879,-32.6796 -46.38807,-87.36432 -68.53318,-149.43489 -4.05532,-11.36667 -9.5201,-26.18747 -12.14398,-32.93512 -17.90251,-46.03878 -33.82323,-137.46518 -40.8751,-234.7296 -1.67673,-23.12675 -1.2916,-35.48388 1.18307,-37.95855 1.15035,-1.15035 2.93981,-0.52332 7.21975,2.52977 13.39352,9.55431 18.02998,10.32215 29.07962,4.81588 27.47868,-13.6932 114.68211,-79.15782 168.16172,-126.24094 24.8585,-21.8853 27.8549,-24.88774 36.6982,-36.7728 8.5811,-11.53256 14.5684,-14.93776 25.0841,-14.2662 4.4,0.28098 12.2,1.26944 17.3333,2.19656 11.6594,2.10577 46.9714,1.14674 54.6485,-1.48419 10.9599,-3.75592 5.7715,-9.19996 -14.3155,-15.02093 -28.8862,-8.37091 -60.3055,-9.44126 -84.333,-2.87294 -58.403,15.96552 -105.49389,32.45278 -122.16677,42.7725 -3.20825,1.98574 -7.98388,5.66537 -10.61251,8.17694 -4.70292,4.4935 -4.88308,4.54323 -11.2714,3.11158 -12.08106,-2.70742 -21.75242,-9.13151 -38.11956,-25.32046 -8.52698,-8.43416 -17.1236,-17.8348 -19.1036,-20.8903 -3.30729,-5.1038 -3.44056,-5.80843 -1.63916,-8.66667 1.07844,-1.71116 3.27246,-9.7112 4.87556,-17.77787 6.4152,-32.28034 33.85815,-136.125 45.6305,-172.66666 13.97352,-43.37415 35.7125,-87.2194 65.44714,-131.999999 8.496,-12.795044 30.7838,-42.620542 31.3935,-42.010808 0.2556,0.255645 -5.9781,15.962658 -13.8528,34.904474 -34.27914,82.455133 -51.3302,130.422673 -57.74263,162.439663 -11.20171,55.92976 -19.97929,157.61933 -14.27793,165.41183 1.61553,2.20806 3.42681,2.56458 12.33333,2.42754 8.22375,-0.12653 15.53401,-1.6116 34.43971,-6.99636 13.20002,-3.75965 37.51592,-10.39468 54.03542,-14.74452 30.5497,-8.04421 49.7265,-14.17081 65.2979,-20.86133 15.4169,-6.62413 31.5649,-5.7926 42.5889,2.19311 6.5044,4.71177 16.9605,10.01777 27.7277,14.0705 11.2306,4.22722 12.8839,4.15667 11.7336,-0.50077 -2.6031,-10.53956 -19.5128,-28.50797 -29.3489,-31.18656 -5.5198,-1.50313 -37.8859,0.32255 -88.7013,5.0034 -26.53,2.44381 -32.4922,3.65465 -38.9714,7.91459 -2.7343,1.79772 -5.6517,3.26857 -6.4832,3.26857 -0.8315,0 -6.0943,-3.60569 -11.6953,-8.01267 -5.6009,-4.40696 -14.17394,-11.15696 -19.05125,-15 -4.87729,-3.84302 -9.47011,-7.93761 -10.20624,-9.09908 -1.52837,-2.41144 0.67953,-14.28636 9.1358,-49.13556 15.14359,-62.40834 37.86609,-128.07624 63.14359,-182.484579 14.9433,-32.164648 35.2888,-68.118952 36.4965,-64.496091 0.2558,0.767391 -1.9415,9.082619 -4.8829,18.478285 -24.8348,79.329905 -43.2119,165.500975 -48.2385,226.192965 -1.5455,18.66077 -1.3416,37.24004 0.4282,39.00977 2.1293,2.12929 15.0834,3.05829 43.658,3.13091 34.2021,0.0869 60.455,-1.50862 78.3406,-4.7612 14.7237,-2.67758 17.5591,-1.86007 21.6999,6.25648 1.5486,3.03556 5.323,8.24177 8.3876,11.56933 5.757,6.25108 24.7831,22.34848 25.4098,21.49851 0.1948,-0.26423 1.9515,-3.27107 3.9038,-6.68187 4.7822,-8.35509 14.2826,-16.45049 23.2376,-19.80096 4.0543,-1.51691 7.6296,-2.49985 7.9451,-2.18433 0.3155,0.31552 -2.4972,6.69308 -6.2505,14.17236 -4.8039,9.57301 -6.7032,14.8411 -6.4156,17.79561 0.6906,7.09681 4.2095,5.99252 9.6987,-3.04367 2.6965,-4.43898 5.7926,-8.07088 6.8801,-8.07088 1.1029,0 3.1507,2.8232 4.6302,6.38346 3.3424,8.04269 6.7361,10.4081 11.8774,8.27852 2.5808,-1.069 4.5573,-3.55251 6.4479,-8.10176 1.5308,-3.68346 3.5934,-6.56022 4.7037,-6.56022 1.0875,0 4.1836,3.6319 6.8801,8.07088 5.4892,9.03619 9.0081,10.14048 9.6988,3.04367 0.2875,-2.95451 -1.6118,-8.2226 -6.4157,-17.79561 -3.7533,-7.47928 -6.566,-13.85684 -6.2505,-14.17236 0.3156,-0.31552 3.8909,0.66742 7.9452,2.18433 8.9549,3.35047 18.4553,11.44587 23.2375,19.80096 1.9523,3.4108 3.709,6.41764 3.9038,6.68187 0.6267,0.84997 19.6528,-15.24743 25.4098,-21.49851 3.0646,-3.32756 6.839,-8.53377 8.3877,-11.56933 4.1407,-8.11655 6.9761,-8.93406 21.6998,-6.25648 17.8857,3.25258 44.1385,4.84812 78.3406,4.7612 31.7435,-0.0807 42.1288,-1.03398 44.2299,-4.06 0.7753,-1.11666 0.9958,-10.09846 0.5529,-22.52395 -2.1194,-59.46059 -22.5938,-159.49376 -50.5549,-246.999996 -2.519,-7.883333 -4.1357,-14.333333 -3.5927,-14.333333 2.9487,0 22.9672,35.713356 37.0936,66.175388 27.6329,59.587461 52.0334,132.632891 67.5854,202.323781 l 5.971,26.75683 -4.3093,4.45788 c -2.3701,2.45184 -7.6093,6.96208 -11.6426,10.02276 -4.0333,3.06068 -11.2997,8.72202 -16.1474,12.58078 -4.8478,3.85875 -9.5107,7.01591 -10.362,7.01591 -0.8513,0 -3.7849,-1.47085 -6.5192,-3.26857 -6.4792,-4.25994 -12.4414,-5.47078 -38.9714,-7.91459 -50.8154,-4.68085 -83.1815,-6.50653 -88.7012,-5.0034 -9.8362,2.67859 -26.7459,20.647 -29.3489,31.18656 -1.1503,4.65744 0.5029,4.72799 11.7336,0.50077 10.7671,-4.05273 21.2232,-9.35873 27.7276,-14.0705 11.024,-7.98571 27.172,-8.81724 42.5889,-2.19311 15.4694,6.64672 34.6949,12.80395 64.639,20.70155 16.1486,4.25909 40.461,10.89352 54.0277,14.74316 19.3008,5.47674 26.8997,7.03401 34.9319,7.15873 6.825,0.106 10.8466,-0.42076 12,-1.57172 6.1215,-6.10869 -2.5646,-111.5474 -13.6872,-166.14627 -6.6228,-32.51008 -23.9552,-81.21309 -57.8448,-162.540418 -7.8881,-18.929796 -14.1231,-34.636809 -13.8554,-34.904475 0.2677,-0.267664 5.9729,6.820351 12.6784,15.751146 33.2283,44.255812 61.8784,96.007507 78.5388,141.867107 11.2018,30.83434 36.887,124.69294 48.4478,177.03736 3.0773,13.93334 6.4862,27.07044 7.5752,29.19358 1.8576,3.6213 1.7629,4.18852 -1.5298,9.1641 -4.8491,7.32746 -23.7266,26.8038 -32.5883,33.6221 -9.1398,7.03229 -16.6309,10.88604 -24.6571,12.68476 -6.1998,1.38941 -6.2399,1.37541 -12.6936,-4.42699 -14.2706,-12.83045 -57.7201,-29.38933 -127.3159,-48.52085 -28.245,-7.7644 -57.4996,-7.18467 -88.333,1.75052 -20.087,5.82097 -25.2753,11.26501 -14.3155,15.02093 7.6771,2.63093 42.9891,3.58996 54.6485,1.48419 5.1333,-0.92712 12.9333,-1.91558 17.3333,-2.19656 10.1204,-0.64631 16.6707,2.79733 23.3269,12.26337 13.4308,19.10039 68.4436,66.68701 134.0064,115.91691 25.1521,18.88624 59.8063,42.35696 71.8021,48.63037 11.5587,6.04484 16.2618,5.373 29.7543,-4.2504 3.056,-2.17967 6.1714,-3.58297 6.923,-3.11845 2.6583,1.64294 3.165,13.24093 1.5961,36.539 -6.5591,97.4033 -23.0199,191.96136 -41.524,238.53074 -2.2683,5.70864 -7.4245,19.65788 -11.4583,30.99831 -22.0026,61.8578 -47.1242,116.62 -68.6232,149.5913 -11.8641,18.1951 -14.1888,20.194 -9.639,8.2883 26.7299,-69.94545 51.4734,-156.50915 60.3598,-211.16523 9.6866,-59.57733 20.0008,-159.7338 18.4072,-178.74272 -0.907,-10.81853 -4.9186,-22.53528 -10.6115,-30.99304 -4.9659,-7.37773 -9.8275,-11.3886 -80.3198,-66.2644 -67.9985,-52.93446 -95.8767,-75.44568 -110.8417,-89.50288 -10.6202,-9.97588 -13.6805,-12.05086 -23.0517,-15.62938 -13.9162,-5.31408 -30.0317,-8.56379 -43.3085,-8.73318 -7.726,-0.0985 -10.7,0.34396 -11.1535,1.65958 -0.355,1.03004 5.8346,8.0105 14.5352,16.39222 27.313,26.31214 42.9578,37.61914 54.3123,39.25339 8.7295,1.25644 14.2808,3.79891 16.8474,7.71603 3.1342,4.7833 5.1696,79.93512 4.1759,154.17772 -1.2542,93.70336 -3.9318,125.16557 -16.8354,197.8144 -18.3385,103.24825 -34.2169,161.88379 -58.8067,217.16099 -13.1095,29.4699 -35.4936,67.2912 -48.348,81.6912 l -4.7609,5.3334 7.8613,-17.5321 c 38.0035,-84.7549 60.1021,-188.18433 65.3369,-305.80123 1.8473,-41.50618 1.7031,-158.00398 -0.2435,-196.66666 -0.8861,-17.6 -1.6354,-45.8 -1.6651,-62.66667 -0.05,-28.21679 0.156,-31.01396 2.5751,-35.01393 2.5537,-4.2227 2.5601,-4.47519 0.2246,-8.81188 -5.3502,-9.93478 -20.966,-29.07019 -36.1297,-44.27279 -21.3937,-21.44867 -32.724,-28.57997 -32.724,-20.59649 0,1.29412 3.0961,7.07993 6.8801,12.85734 8.9828,13.71479 10.4532,18.98083 10.4532,37.43554 0,32.16733 -6.0589,66.66202 -20.6939,117.81365 -15.4485,53.99507 -36.6783,108.30773 -47.3059,121.0236 -3.2943,3.94169 -4.5566,3.102 -6.6668,-4.43504 -1.8784,-6.70881 -3.6827,-8.62997 -5.4824,-5.83749 -1.0062,1.5611 -1.3624,1.5611 -2.3686,0 -1.7997,-2.79248 -3.604,-0.87132 -5.4824,5.83749 -0.9345,3.33779 -2.2991,6.43953 -3.0325,6.89277 -4.7558,2.93926 -23.9883,-39.07474 -39.4712,-86.2261 -21.139,-64.37626 -32.2139,-117.22647 -32.2711,-154 -0.03,-19.3475 1.3791,-24.48494 10.5614,-38.50442 7.0654,-10.78732 8.2848,-14.67125 5.0016,-15.93112 -7.334,-2.81432 -54.803,45.34068 -66.9752,67.94306 -2.3355,4.33669 -2.329,4.58918 0.2247,8.81188 2.4141,3.9919 2.6251,6.7996 2.5807,34.34726 -0.026,16.5 -0.7813,44.54458 -1.6771,62.32127 -3.127,62.05192 -1.795,194.38131 2.4393,242.3454 9.0213,102.18932 31.2208,193.44646 64.5016,265.15186 3.2798,7.0665 5.7119,12.8481 5.4049,12.8481 -0.3071,0 -3.0704,-3.15 -6.1406,-7 z"
     id="path1935"
     inkscape:connector-curvature="0" />
</svg>
