<?xml version="1.0" encoding="UTF-8" standalone="no"?>
<!-- Created with Inkscape (http://www.inkscape.org/) -->

<svg
   xmlns:dc="http://purl.org/dc/elements/1.1/"
   xmlns:cc="http://creativecommons.org/ns#"
   xmlns:rdf="http://www.w3.org/1999/02/22-rdf-syntax-ns#"
   xmlns:svg="http://www.w3.org/2000/svg"
   xmlns="http://www.w3.org/2000/svg"
   xmlns:sodipodi="http://sodipodi.sourceforge.net/DTD/sodipodi-0.dtd"
   xmlns:inkscape="http://www.inkscape.org/namespaces/inkscape"
   version="1.1"
   id="svg815"
   width="512"
   height="454"
   viewBox="0 0 512 454"
   sodipodi:docname="lfantlogo.svg"
   inkscape:version="0.92.4 (5da689c313, 2019-01-14)">
  <metadata
     id="metadata821">
    <rdf:RDF>
      <cc:Work
         rdf:about="">
        <dc:format>image/svg+xml</dc:format>
        <dc:type
           rdf:resource="http://purl.org/dc/dcmitype/StillImage" />
        <dc:title></dc:title>
      </cc:Work>
    </rdf:RDF>
  </metadata>
  <defs
     id="defs819" />
  <sodipodi:namedview
     pagecolor="#ffffff"
     bordercolor="#666666"
     borderopacity="1"
     objecttolerance="10"
     gridtolerance="10"
     guidetolerance="10"
     inkscape:pageopacity="0"
     inkscape:pageshadow="2"
     inkscape:window-width="1920"
     inkscape:window-height="1057"
     id="namedview817"
     showgrid="false"
     inkscape:zoom="0.97797357"
     inkscape:cx="383.64351"
     inkscape:cy="252.97842"
     inkscape:window-x="-8"
     inkscape:window-y="-8"
     inkscape:window-maximized="1"
     inkscape:current-layer="svg815" />
  <path
     style="fill:#000000"
     d="m 275.38847,445.13738 c -0.32898,-2.0625 -1.71399,-13.65 -3.0778,-25.75 -1.3638,-12.1 -3.82298,-33.7 -5.46484,-48 -1.64186,-14.3 -5.71766,-49.80329 -9.05733,-78.8962 l -6.07212,-52.89621 -3.20278,-3.70219 c -1.76153,-2.0362 -8.26528,-9.15335 -14.45278,-15.81588 -6.1875,-6.66252 -11.25,-12.64225 -11.25,-13.28827 0,-0.64602 0.5334,-5.18084 1.18533,-10.07737 l 1.18532,-8.9028 -24.81989,-36.90577 -24.81989,-36.90576 23.76777,-40.554775 23.76777,-40.554769 h 70.24897 70.24896 l 23.2799,39.75 c 12.80394,21.862503 23.48995,40.138354 23.74669,40.613014 0.25673,0.47465 -10.67255,17.41788 -24.28729,37.65162 l -24.75408,36.78863 1.27656,10.01706 1.27657,10.01706 -14.54819,15.67785 c -14.0729,15.16567 -14.56784,15.84621 -15.14993,20.83131 -0.33097,2.8344 -4.42509,38.67845 -9.09805,79.65345 -4.67296,40.975 -8.93769,78.1 -9.47718,82.5 -0.53949,4.4 -1.66844,14.3 -2.50879,22 -0.84034,7.7 -1.77163,15.4625 -2.06953,17.25 l -0.54165,3.25 H 293.3534 275.98662 Z M 141.88601,354.80012 c -12.00162,-2.35467 -22.28334,-7.15652 -29.2234,-13.64813 -5.37924,-5.03164 -5.88009,-7.15596 -0.64404,-2.7316 8.15396,6.88994 20.36852,9.94289 37.02408,9.25396 24.04173,-0.99446 38.19161,-10.52236 50.17698,-33.78697 8.1634,-15.84583 12.99684,-34.95448 18.08561,-71.5 1.45511,-10.45 2.95164,-19.79707 3.32562,-20.77127 0.54582,-1.42185 2.88578,0.66803 11.86148,10.59384 l 11.18151,12.36511 -2.50599,12.85358 c -3.10817,15.94222 -8.84856,33.62383 -15.30217,47.13388 -12.85429,26.9093 -32.64843,45.48571 -53.15154,49.88169 -7.06786,1.51539 -23.92632,1.71002 -30.82814,0.35591 z m 69.70771,-39.25484 c 9.26098,-14.29334 18.14622,-37.47228 22.32685,-58.24408 l 2.13311,-10.59855 -4.83384,-4.90764 c -2.65861,-2.69919 -5.09635,-4.90763 -5.4172,-4.90763 -0.32084,0 -1.17377,4.6125 -1.89539,10.25 -4.59245,35.8775 -12.4156,62.90734 -22.60378,78.0985 -2.47096,3.68434 -4.4755,7.02566 -4.45453,7.42515 0.0801,1.52628 10.51242,-10.58356 14.74478,-17.11575 z m 200.33313,38.36101 c -4.06118,-1.09814 -10.31617,-3.6364 -13.89997,-5.64057 -8.29724,-4.64008 -20.54195,-16.31799 -27.18321,-25.92493 -10.71262,-15.49633 -20.01484,-39.20808 -25.04773,-63.84767 l -2.83805,-13.89426 11.17646,-12.30542 c 6.14706,-6.76798 11.44074,-11.99056 11.76374,-11.60574 0.323,0.38482 2.03742,10.89315 3.80983,23.35184 4.02996,28.32759 6.31177,39.628 10.60255,52.50797 12.03547,36.12788 29.984,51.27862 60.80289,51.32509 15.3267,0.0231 23.474,-2.41194 35.6975,-10.66911 1.3841,-0.93502 0.5361,0.37636 -1.8999,2.9381 -5.0826,5.3448 -12.6449,9.61585 -22.6001,12.76403 -10.2964,3.25606 -30.2175,3.74968 -40.38401,1.00067 z M 386.9347,327.56743 c -11.12216,-16.1655 -18.03709,-38.39076 -23.31292,-74.93005 -1.25076,-8.6625 -2.52432,-15.75 -2.83013,-15.75 -0.30581,0 -2.71831,2.19531 -5.36113,4.87847 l -4.80511,4.87847 2.09934,10.37153 c 4.66014,23.02283 15.23313,49.29684 25.1662,62.53834 8.83936,11.7835 16.00776,18.13508 9.04375,8.01324 z M 102.79032,213.74423 C 78.876595,191.6715 59.203945,173.33646 59.073335,172.99969 58.591185,171.75649 46.830055,66.534806 47.138745,66.226113 c 0.17602,-0.17601 17.6623,18.688276 38.85842,41.920627 21.196115,23.23235 57.033895,62.48458 79.639495,87.22718 22.60559,24.74259 40.78003,45.27179 40.38762,45.62044 -0.3924,0.34864 -13.31346,3.19478 -28.71346,6.32475 -15.4,3.12997 -28.68422,5.88581 -29.52049,6.1241 -0.95221,0.27133 -17.77074,-14.56597 -45.00001,-39.69898 z m 307.21995,33.79615 c -16.1153,-3.39075 -29.32828,-6.54591 -29.36217,-7.01148 -0.051,-0.70079 41.54676,-46.50445 145.13136,-159.805421 7.4078,-8.102636 13.6095,-14.591262 13.7816,-14.419174 0.3276,0.32759 -11.6158,106.806865 -12.0188,107.151355 -0.1273,0.10883 -19.7848,18.25049 -43.6834,40.31479 -23.8986,22.06431 -43.6986,40.07598 -44,40.02592 -0.3014,-0.05 -13.73329,-2.86525 -29.84859,-6.25599 z M 130.1256,143.93859 49.940375,56.387386 105.37248,28.637167 160.8046,0.88694748 187.55771,15.857796 c 14.71421,8.233966 26.67329,15.321565 26.57573,15.750218 -0.0976,0.428655 -11.05162,19.151852 -24.34237,41.607105 l -24.165,40.827741 13.84237,20.42855 c 7.61331,11.23572 19.09435,28.18824 25.51343,37.67227 l 11.67105,17.2437 -2.92625,20 c -1.60944,11 -3.03641,20.47304 -3.17105,21.05121 -0.13464,0.57816 -36.32815,-38.34684 -80.43002,-86.5 z m 76.02793,66.69879 c 0.31091,-1.7875 1.10441,-6.90089 1.76335,-11.36308 l 1.19806,-8.11309 -25.90206,-38.2346 c -14.24613,-21.02902 -25.80617,-38.59081 -25.68896,-39.02619 0.1172,-0.43539 10.43604,-18.053931 22.93075,-39.152324 12.49471,-21.09839 22.74881,-39.141132 22.7869,-40.09498 0.0498,-1.245856 -5.96407,-5.098808 -21.35397,-13.681125 L 160.46439,9.0251345 111.63759,33.494479 C 84.782865,46.952618 62.810815,58.317342 62.810815,58.74942 c 0,1.193445 140.971145,155.13796 142.064015,155.13796 0.39238,0 0.96779,-1.4625 1.2787,-3.25 z m 167.00816,0.0434 -3.11244,-21.2934 24.69847,-36.5 c 13.58415,-20.075 25.04016,-37.07559 25.45779,-37.77911 0.47649,-0.80265 -8.07936,-16.261051 -22.96925,-41.500001 -13.05073,-22.121485 -24.12185,-40.730803 -24.60249,-41.354039 -0.60166,-0.780159 7.55288,-5.844395 26.17687,-16.256689 L 425.8614,0.87400648 481.08606,28.496094 c 30.3736,15.192147 55.309,27.691908 55.412,27.777246 0.103,0.08534 -11.372,12.772595 -25.5,28.193909 -14.128,15.421308 -49.7622,54.313291 -79.1872,86.426631 -29.42504,32.11334 -53.9583,58.9937 -54.51839,59.73413 -0.72603,0.95981 -1.91178,-4.76607 -4.13078,-19.94719 z m 80.00787,-73.89354 c 38.8527,-42.405071 70.6413,-77.504175 70.6413,-77.997997 0,-0.493821 -21.9742,-11.88675 -48.8316,-25.31762 L 426.14771,9.0518605 404.47927,21.160035 c -11.91765,6.659495 -21.66845,12.530819 -21.66845,13.047386 0,0.808108 15.02614,26.521375 40.07452,68.576949 l 6.78806,11.39698 -5.10584,7.60301 c -2.80821,4.18166 -14.52275,21.48362 -26.03232,38.4488 l -20.92649,30.84578 1.14776,8.15422 c 1.74433,12.39247 2.21111,14.65422 3.0243,14.65422 0.41107,0 32.53599,-34.69506 71.38875,-77.10014 z"
     id="path825"
     inkscape:connector-curvature="0" />
</svg>
